<svg xmlns="http://www.w3.org/2000/svg" xmlns:xlink="http://www.w3.org/1999/xlink" width="2000" zoomAndPan="magnify" viewBox="0 0 1500 1499.999933" height="2000" preserveAspectRatio="xMidYMid meet" version="1.0"><path fill="#fcb18b" d="M 564.683594 839.152344 C 562.015625 876.484375 546.015625 976.484375 546.015625 976.484375 C 546.015625 976.484375 679.351562 1049.820312 754.015625 993.816406 C 759.347656 895.144531 795.347656 861.816406 815.347656 836.480469 C 835.351562 811.144531 882.015625 756.476562 886.015625 729.816406 C 890.011719 703.144531 890.011719 647.152344 910.015625 611.152344 C 931.34375 580.484375 954.015625 559.152344 940.679688 525.816406 C 927.347656 492.476562 903.347656 487.144531 879.347656 507.148438 C 883.34375 464.480469 860.679688 449.820312 824.679688 499.144531 C 803.347656 465.816406 756.683594 471.148438 744.683594 516.476562 C 720.683594 491.144531 672.683594 515.144531 671.347656 547.144531 C 644.679688 527.144531 611.347656 549.816406 599.347656 581.808594 C 587.347656 613.8125 576.683594 637.8125 571.351562 675.140625 C 566.019531 712.46875 554.019531 760.476562 564.683594 839.144531 Z M 564.683594 839.152344 " fill-opacity="1" fill-rule="evenodd"/><path fill="#f9d7c7" d="M 841.351562 597.148438 C 830.019531 601.144531 822.683594 622.484375 824.019531 629.820312 C 825.355469 637.152344 840.683594 651.148438 856.023438 641.152344 C 863.355469 617.152344 864.023438 599.152344 841.351562 597.148438 Z M 841.351562 597.148438 " fill-opacity="1" fill-rule="evenodd"/><path fill="#f9d7c7" d="M 878.019531 470.480469 C 878.019531 470.480469 867.355469 474.476562 865.351562 481.8125 C 863.347656 489.148438 860.019531 508.484375 862.679688 512.480469 C 865.34375 516.476562 866.011719 519.816406 866.011719 519.816406 L 877.34375 505.144531 C 877.34375 505.144531 883.34375 476.480469 878.011719 470.480469 Z M 878.019531 470.480469 " fill-opacity="1" fill-rule="evenodd"/><path fill="#db6b40" d="M 775.574219 650.554688 C 772.070312 650.554688 768.667969 649.632812 765.503906 647.769531 C 745.691406 636.148438 737.019531 590.585938 741.097656 519.511719 C 741.230469 517.234375 743.21875 515.347656 745.449219 515.628906 C 747.71875 515.761719 749.457031 517.707031 749.324219 519.972656 C 743.71875 617.597656 763.484375 637.03125 769.671875 640.664062 C 774.050781 643.234375 778.953125 642.824219 784.253906 639.4375 C 806.472656 625.292969 826.589844 568.929688 820.351562 502.53125 C 820.144531 500.265625 821.800781 498.253906 824.070312 498.042969 C 826.351562 497.882812 828.347656 499.5 828.558594 501.757812 C 835.171875 572.191406 813.476562 630.609375 788.679688 646.394531 C 784.328125 649.160156 779.867188 650.5625 775.574219 650.5625 Z M 775.574219 650.554688 " fill-opacity="1" fill-rule="nonzero"/><path fill="#db6b40" d="M 722.6875 675.140625 C 722.199219 675.140625 721.722656 675.125 721.234375 675.089844 C 678.476562 672.363281 670.902344 587.25 668.050781 555.207031 L 667.789062 552.253906 C 667.582031 549.996094 669.253906 547.984375 671.523438 547.78125 C 673.8125 547.625 675.800781 549.246094 675.996094 551.511719 L 676.261719 554.472656 C 678.683594 581.710938 686.050781 664.582031 721.753906 666.867188 C 735.273438 667.871094 753.015625 649.542969 760.449219 639.808594 C 761.835938 637.996094 764.414062 637.648438 766.226562 639.03125 C 768.042969 640.417969 768.386719 642.996094 767.003906 644.808594 C 764.585938 647.976562 743.25 675.140625 722.6875 675.140625 Z M 722.6875 675.140625 " fill-opacity="1" fill-rule="nonzero"/><path fill="#db6b40" d="M 677.09375 683.53125 C 660.519531 683.53125 645.617188 661.46875 631.203125 640.128906 C 622.664062 627.496094 613.835938 614.421875 606.050781 608.480469 C 604.234375 607.105469 603.890625 604.515625 605.273438 602.703125 C 606.652344 600.898438 609.238281 600.535156 611.050781 601.929688 C 619.921875 608.6875 628.714844 621.71875 638.035156 635.503906 C 650.636719 654.164062 664.902344 675.28125 677.101562 675.28125 C 677.234375 675.28125 677.367188 675.28125 677.488281 675.28125 C 682.996094 675.074219 688.507812 670.203125 693.890625 660.792969 C 695.011719 658.8125 697.523438 658.128906 699.511719 659.25 C 701.488281 660.386719 702.171875 662.902344 701.042969 664.878906 C 694.0625 677.09375 686.457031 683.191406 677.800781 683.511719 C 677.570312 683.511719 677.332031 683.53125 677.101562 683.53125 Z M 677.09375 683.53125 " fill-opacity="1" fill-rule="nonzero"/><path fill="#db6b40" d="M 643.308594 656.894531 C 643.136719 656.894531 642.964844 656.894531 642.792969 656.859375 C 625.847656 654.707031 606.734375 650.992188 593.488281 639.667969 C 591.757812 638.183594 591.550781 635.585938 593.035156 633.855469 C 594.511719 632.132812 597.117188 631.921875 598.847656 633.402344 C 610.441406 643.320312 628.097656 646.691406 643.828125 648.683594 C 646.085938 648.972656 647.6875 651.03125 647.398438 653.292969 C 647.132812 655.375 645.363281 656.902344 643.308594 656.902344 Z M 643.308594 656.894531 " fill-opacity="1" fill-rule="nonzero"/><path fill="#db6b40" d="M 609.558594 675.140625 C 605.578125 675.140625 601.804688 675.042969 598.441406 674.828125 C 596.175781 674.679688 594.445312 672.726562 594.59375 670.449219 C 594.742188 668.183594 596.71875 666.371094 598.96875 666.601562 C 618.363281 667.835938 646.996094 665.167969 653.28125 662.851562 C 655.441406 662.085938 657.792969 663.164062 658.574219 665.308594 C 659.355469 667.441406 658.261719 669.808594 656.125 670.597656 C 649.121094 673.171875 627.328125 675.148438 609.570312 675.148438 Z M 609.558594 675.140625 " fill-opacity="1" fill-rule="nonzero"/><path fill="#db6b40" d="M 650.53125 765.996094 C 650.441406 765.996094 650.355469 765.996094 650.265625 765.996094 C 648 765.847656 646.269531 763.894531 646.417969 761.621094 C 648.882812 722.984375 686.152344 671.957031 715.179688 667.5 C 717.4375 667.136719 719.53125 668.703125 719.875 670.945312 C 720.222656 673.195312 718.671875 675.296875 716.429688 675.644531 C 691.46875 679.476562 656.828125 727.984375 654.644531 762.148438 C 654.503906 764.332031 652.691406 766.003906 650.53125 766.003906 Z M 650.53125 765.996094 " fill-opacity="1" fill-rule="nonzero"/><path fill="#db6b40" d="M 617.585938 722.292969 C 617.117188 722.292969 616.664062 722.292969 616.203125 722.25 C 613.9375 722.101562 612.207031 720.148438 612.355469 717.875 C 612.503906 715.605469 614.480469 713.835938 616.730469 714.023438 C 624.988281 714.542969 636.558594 707.175781 647.753906 700.039062 C 660.734375 691.773438 674.144531 683.042969 686.539062 683.523438 C 688.8125 683.578125 690.617188 685.46875 690.558594 687.75 C 690.503906 690.015625 688.773438 691.714844 686.339844 691.761719 C 676.738281 691.484375 664.128906 699.378906 652.1875 706.996094 C 639.847656 714.847656 628.160156 722.292969 617.597656 722.292969 Z M 617.585938 722.292969 " fill-opacity="1" fill-rule="nonzero"/><path fill="#db6b40" d="M 831.28125 746.332031 C 829.855469 746.332031 828.46875 745.589844 827.710938 744.273438 C 822.644531 735.519531 816.453125 726.914062 810.46875 718.589844 C 792.570312 693.691406 774.058594 667.945312 788.679688 639.59375 C 789.726562 637.574219 792.191406 636.765625 794.234375 637.820312 C 796.253906 638.867188 797.042969 641.347656 796.003906 643.375 C 783.691406 667.234375 799.203125 688.804688 817.160156 713.777344 C 823.261719 722.265625 829.574219 731.042969 834.839844 740.152344 C 835.984375 742.113281 835.308594 744.644531 833.339844 745.78125 C 832.691406 746.160156 831.980469 746.332031 831.28125 746.332031 Z M 831.28125 746.332031 " fill-opacity="1" fill-rule="nonzero"/><path fill="#db6b40" d="M 839.984375 652.359375 C 834.59375 652.359375 830.273438 650.6875 827.003906 647.347656 C 804.261719 624.15625 852.421875 529.078125 872.324219 505.269531 C 873.792969 503.53125 876.378906 503.292969 878.132812 504.75 C 879.882812 506.207031 880.113281 508.804688 878.652344 510.550781 C 855.394531 538.394531 816.847656 625.21875 832.886719 641.578125 C 836.753906 645.527344 851.316406 650.199219 903.125 608.652344 C 904.902344 607.21875 907.5 607.515625 908.917969 609.289062 C 910.34375 611.058594 910.054688 613.65625 908.28125 615.074219 C 877.195312 640.003906 854.621094 652.359375 839.976562 652.359375 Z M 839.984375 652.359375 " fill-opacity="1" fill-rule="nonzero"/><path fill="#db6b40" d="M 889.457031 678.238281 C 887.636719 678.238281 885.964844 677.019531 885.476562 675.171875 C 881.671875 660.742188 877.136719 633.949219 878.992188 626.429688 C 879.535156 624.222656 881.769531 622.878906 883.976562 623.421875 C 886.1875 623.96875 887.539062 626.199219 886.984375 628.410156 C 885.800781 633.199219 889.300781 657.402344 893.441406 673.0625 C 894.015625 675.273438 892.707031 677.523438 890.515625 678.097656 C 890.160156 678.199219 889.804688 678.238281 889.457031 678.238281 Z M 889.457031 678.238281 " fill-opacity="1" fill-rule="nonzero"/></svg>